<?xml version="1.0" encoding="UTF-8" standalone="no"?>
<!-- Created with Inkscape (http://www.inkscape.org/) -->

<svg
   version="1.1"
   id="svg2"
   width="1066.6667"
   height="894.66669"
   viewBox="0 0 1066.6667 894.66669"
   xmlns="http://www.w3.org/2000/svg"
   xmlns:svg="http://www.w3.org/2000/svg">
  <defs
     id="defs6">
    <clipPath
       clipPathUnits="userSpaceOnUse"
       id="clipPath18">
      <path
         d="M 0,671 H 800 V 0 H 0 Z"
         id="path16" />
    </clipPath>
  </defs>
  <g
     id="g8"
     transform="matrix(1.3333333,0,0,-1.3333333,0,894.66667)">
    <path
       d="M 0,0 H 800 V 671 H 0 Z"
       style="fill:#231f20;fill-opacity:1;fill-rule:nonzero;stroke:none"
       id="path10" />
    <g
       id="g12">
      <g
         id="g14"
         clip-path="url(#clipPath18)">
        <g
           id="g20"
           transform="translate(379.2211,501.6007)">
          <path
             d="m 0,0 c 19.497,-21.335 38.739,-42.899 58.517,-63.928 -11.509,-26.056 -23.504,-51.907 -35.396,-77.785 20.467,-0.204 40.96,-0.025 61.452,-0.102 -29.041,-49.942 -57.598,-100.166 -86.717,-150.057 6.227,38.05 13.883,75.845 20.212,113.895 -19.063,-0.051 -38.127,0.077 -57.165,-0.076 C -26.133,-118.694 -12.913,-59.385 0,0"
             style="fill:#ffffff;fill-opacity:1;fill-rule:nonzero;stroke:none"
             id="path22" />
        </g>
        <g
           id="g24"
           transform="translate(279.7441,382.1415)">
          <path
             d="M 0,0 C 16.282,27.281 42.185,48.335 71.839,59.615 69.95,49.432 67.577,39.377 65.28,29.297 34.503,12.556 11.816,-18.553 6.431,-53.286 c -6.252,-35.345 5.538,-73.242 30.624,-98.89 22.534,-23.759 55.583,-37.055 88.299,-35.396 37.949,1.301 74.238,23.095 93.684,55.659 18.528,30.139 21.743,68.93 8.677,101.774 -11.305,29.603 -35.651,53.082 -64.617,65.408 4.033,7.171 7.784,14.521 11.484,21.87 32.513,-13.704 59.488,-39.938 73.804,-72.196 17.354,-38.433 16.078,-84.828 -3.623,-122.113 -17.175,-33.227 -48.157,-59.028 -84.038,-69.644 -32.666,-9.902 -68.878,-7.325 -99.783,7.171 -30.726,14.266 -55.864,40.041 -69.338,71.099 C -26.439,-87.687 -23.351,-38.127 0,0"
             style="fill:#ffffff;fill-opacity:1;fill-rule:nonzero;stroke:none"
             id="path26" />
        </g>
      </g>
    </g>
  </g>
</svg>
